<svg xmlns="http://www.w3.org/2000/svg" viewBox="0 0 512 512" width="100%" height="100%">
  <rect width="512" height="512" rx="112.64" fill="#3A4E2C"/>
  
  <g transform="translate(0, 12)">
    <circle cx="256" cy="315" r="92" fill="none" stroke="#C9A96E" stroke-width="26"/>
    
    <path d="M 226,224 L 286,224 L 270,210 L 242,210 Z" fill="#C9A96E" stroke="#3A4E2C" stroke-width="2" stroke-linejoin="round"/>

    <g stroke="#3A4E2C" stroke-width="5.5" stroke-linejoin="round" stroke-linecap="round">
      <path d="M 210,115 L 302,115 L 282,155 L 230,155 Z" fill="#FFFFFF"/>
      <path d="M 170,155 L 210,115 L 230,155 Z" fill="#FFFFFF"/>
      <path d="M 302,115 L 342,155 L 282,155 Z" fill="#FFFFFF"/>
      
      <path d="M 170,155 L 230,155 L 256,235 Z" fill="#FFFFFF"/>
      <path d="M 230,155 L 256,155 L 256,235 Z" fill="#FFFFFF"/>
      <path d="M 256,155 L 282,155 L 256,235 Z" fill="#FFFFFF"/>
      <path d="M 282,155 L 342,155 L 256,235 Z" fill="#FFFFFF"/>
    </g>

    <path d="M 290,120 Q 290,138 308,138 Q 290,138 290,156 Q 290,138 272,138 Q 290,138 290,120 Z" fill="#C9A96E"/>
  </g>
</svg>
